<svg xmlns:inkscape="http://www.inkscape.org/namespaces/inkscape" xmlns:sodipodi="http://sodipodi.sourceforge.net/DTD/sodipodi-0.dtd" xmlns="http://www.w3.org/2000/svg" xmlns:svg="http://www.w3.org/2000/svg" version="1.1" id="svg2" width="1122.52" height="793.70667" viewBox="0 0 1122.52 793.70667" sodipodi:docname="alinma logo-white.ai">
  <defs id="defs6">
    <clipPath clipPathUnits="userSpaceOnUse" id="clipPath20">
      <path d="M 0,595.28 H 841.89 V 0 H 0 Z" id="path18"/>
    </clipPath>
  </defs>
  <sodipodi:namedview id="namedview4" pagecolor="#ffffff" bordercolor="#000000" borderopacity="0.25" inkscape:showpageshadow="2" inkscape:pageopacity="0.0" inkscape:pagecheckerboard="0" inkscape:deskcolor="#d1d1d1"/>
  <g id="g8" inkscape:groupmode="layer" inkscape:label="alinma logo-white" transform="matrix(1.3333333,0,0,-1.3333333,0,793.70667)">
    <g id="g10" transform="translate(687.1544,226.7801)">
      <path d="M 0,0 43.326,14.665 V 142.963 L 0,129.296 Z M 110.743,-17.434 H -66.298 V 159.59 h 177.041 z" style="fill:#ffffff;fill-opacity:1;fill-rule:nonzero;stroke:none" id="path12"/>
    </g>
    <g id="g14">
      <g id="g16" clip-path="url(#clipPath20)">
        <g id="g22" transform="translate(74.6989,220.071)">
          <path d="m 0,0 c -2.077,-1.806 -5.238,-2.787 -7.742,-2.787 -4.731,0 -7.73,2.51 -7.73,7.108 0,6.011 6.98,7.407 15.472,7.695 z m -5.63,40.758 c -5.481,0 -13.385,-1.511 -19.119,-2.919 l 2.781,-9.905 c 5.145,1.24 10.026,2.221 13.072,2.221 6.369,0 8.781,-2.106 8.896,-9.219 v -0.277 c -16.638,-0.693 -27.264,-5.019 -27.264,-17.03 0,-8.654 7.015,-15.046 15.345,-15.046 4.962,0 9.646,0.254 14.007,2.902 0.15,-0.837 0.358,-1.264 0.67,-2.21 l 9.842,0.127 c 0,3.058 0.092,7.113 0.092,10.598 v 23.042 c 0,15.639 -9.565,17.716 -18.322,17.716" style="fill:#ffffff;fill-opacity:1;fill-rule:nonzero;stroke:none" id="path24"/>
        </g>
        <g id="g26" transform="translate(324.915,220.071)">
          <path d="m 0,0 c -2.088,-1.806 -5.25,-2.787 -7.765,-2.787 -4.765,0 -7.708,2.51 -7.708,7.108 0,6.011 6.946,7.407 15.473,7.695 z m -5.619,40.758 c -5.562,0 -13.396,-1.511 -19.108,-2.919 l 2.793,-9.905 c 5.1,1.24 9.969,2.221 13.096,2.221 6.334,0 8.722,-2.106 8.838,-9.219 v -0.277 c -16.65,-0.693 -27.299,-5.019 -27.299,-17.03 0,-8.654 7.026,-15.046 15.426,-15.046 4.95,0 9.577,0.254 13.938,2.902 0.242,-0.837 0.369,-1.264 0.704,-2.21 l 9.819,0.127 c 0,3.058 0.127,7.113 0.127,10.598 v 23.042 c 0,15.639 -9.634,17.716 -18.334,17.716" style="fill:#ffffff;fill-opacity:1;fill-rule:nonzero;stroke:none" id="path28"/>
        </g>
        <g id="g30" transform="translate(452.7923,220.071)">
          <path d="m 0,0 c -2.135,-1.806 -5.273,-2.787 -7.765,-2.787 -4.8,0 -7.696,2.51 -7.696,7.108 0,6.011 6.899,7.407 15.461,7.695 z m -5.654,40.758 c -5.55,0 -13.372,-1.511 -19.107,-2.919 l 2.792,-9.905 c 5.123,1.24 9.969,2.221 13.038,2.221 6.381,0 8.769,-2.106 8.931,-9.219 v -0.277 c -16.673,-0.693 -27.276,-5.019 -27.276,-17.03 0,-8.654 6.98,-15.046 15.345,-15.046 4.95,0 9.612,0.254 13.996,2.902 0.162,-0.837 0.416,-1.264 0.658,-2.21 l 9.83,0.127 c 0,3.058 0.127,7.113 0.127,10.598 v 23.042 c 0,15.639 -9.565,17.716 -18.334,17.716" style="fill:#ffffff;fill-opacity:1;fill-rule:nonzero;stroke:none" id="path32"/>
        </g>
        <g id="g34" transform="translate(392.8628,218.9515)">
          <path d="m 0,0 c -2.25,0 -4.454,0.15 -6.922,0.692 v 29.054 c 2.376,0.547 4.869,0.974 7.407,0.974 5.296,0 11.376,-0.427 11.376,-15.213 C 11.861,5.602 6.3,0 0,0 m 1.096,41.878 c -2.849,0 -5.642,-0.398 -8.018,-0.82 l 0.172,20.804 h -12.934 l -0.115,-69.541 c 7.269,-2.077 12.08,-2.924 19.961,-2.924 13.868,0 24.876,9.501 24.876,26.11 0,21.213 -9.98,26.371 -23.942,26.371" style="fill:#ffffff;fill-opacity:1;fill-rule:nonzero;stroke:none" id="path36"/>
        </g>
        <g id="g38" transform="translate(561.7583,238.6413)">
          <path d="M 0,0 17.734,20.399 H 3.588 L -14.688,-1.379 v 43.395 l -12.83,0.156 v -71.467 h 12.83 v 23.157 h 4.061 L 3.161,-29.295 h 14.977 z" style="fill:#ffffff;fill-opacity:1;fill-rule:nonzero;stroke:none" id="path40"/>
        </g>
        <path d="m 130.451,209.346 h 12.877 v 49.695 h -12.877 z" style="fill:#ffffff;fill-opacity:1;fill-rule:nonzero;stroke:none" id="path42"/>
        <g id="g44" transform="translate(136.7627,279.6826)">
          <path d="m 0,0 c -3.808,0 -6.854,-3.064 -6.854,-6.865 0,-3.9 3.046,-6.94 6.854,-6.94 3.807,0 6.888,3.04 6.888,6.94 C 6.888,-3.064 3.807,0 0,0" style="fill:#ffffff;fill-opacity:1;fill-rule:nonzero;stroke:none" id="path46"/>
        </g>
        <g id="g48" transform="translate(179.3962,260.8293)">
          <path d="m 0,0 c -8.389,0 -18.219,-1.512 -23.792,-3.081 v -48.402 h 12.935 v 38.658 c 3.034,0.543 6.345,0.837 9.276,0.837 8.653,0 10.061,-5.446 10.061,-14.25 v -25.245 h 12.865 v 30.149 C 21.345,-7.8 14.711,0 0,0" style="fill:#ffffff;fill-opacity:1;fill-rule:nonzero;stroke:none" id="path50"/>
        </g>
        <g id="g52" transform="translate(501.1134,260.8293)">
          <path d="m 0,0 c -8.411,0 -18.241,-1.512 -23.791,-3.081 v -48.402 h 12.899 v 38.658 c 3.046,0.543 6.335,0.837 9.312,0.837 8.63,0 10.003,-5.446 10.003,-14.25 v -25.245 h 12.958 v 30.149 C 21.381,-7.8 14.689,0 0,0" style="fill:#ffffff;fill-opacity:1;fill-rule:nonzero;stroke:none" id="path54"/>
        </g>
        <g id="g56" transform="translate(267.7202,260.8293)">
          <path d="M 0,0 C -5.723,0 -12.484,-1.246 -17.676,-3.9 -20.214,-1.95 -25.13,0 -31.73,0 -39.714,0 -49.626,-1.512 -55.071,-3.081 v -48.402 h 12.888 v 38.658 c 2.977,0.543 6.149,0.837 9.046,0.837 8.434,0 9.738,-5.446 9.738,-14.25 v -25.245 h 12.888 v 30.149 c 0,1.8 -0.196,3.196 -0.427,4.73 l -0.093,0.554 -0.276,1.546 c 2.931,1.679 6.922,2.516 9.853,2.516 8.366,0 9.704,-5.319 9.704,-14.25 v -25.245 h 12.853 v 30.149 C 21.103,-7.673 14.457,0 0,0" style="fill:#ffffff;fill-opacity:1;fill-rule:nonzero;stroke:none" id="path58"/>
        </g>
        <g id="g60" transform="translate(118.2669,219.2575)">
          <path d="M 0,0 C -3.185,0 -5.711,1.511 -5.711,7.084 V 61.556 H -18.576 V 6.675 c 0,-14.942 8.088,-16.587 14.134,-16.587 2.227,0 4.603,0 8.203,0.127 L 3.542,0 C 2.804,-0.156 0.785,0 0,0" style="fill:#ffffff;fill-opacity:1;fill-rule:nonzero;stroke:none" id="path62"/>
        </g>
        <g id="g64" transform="translate(150.2851,334.1311)">
          <path d="m 0,0 c 0,-6.162 -1.396,-8.792 -5.134,-8.792 -3.346,0 -7.108,3.202 -10.477,8.088 -0.577,0.86 -0.877,1.552 -0.877,1.552 v 0.963 c 0,8.931 0.981,14.25 9.369,14.25 2.296,0 4.719,-0.283 7.119,-0.566 z m 30.795,-0.415 c 0,-6.139 -3.427,-7.818 -7.568,-7.818 -5.008,0 -9.243,2.643 -9.243,11.579 v 22.626 c -5.492,1.546 -15.126,3.052 -23.468,3.052 -14.353,0 -20.884,-7.517 -21.022,-20.636 v -8.803 c 0,-6.139 -2.666,-7.818 -6.081,-7.818 h -4.57 c -3.415,0 -6.08,1.679 -6.08,7.818 V 51.668 H -61.256 V -0.831 c 0,-12.15 4.765,-17.745 15.126,-17.745 h 14.273 c 6.854,0 10.869,2.105 13.327,6.726 l 1.281,-1.269 c 3.704,-3.767 8.434,-6.138 13.303,-6.138 5.446,0 9.934,1.811 13.015,5.158 6.346,-4.477 10.327,-4.477 17.435,-4.477 9.241,0 18.253,1.54 18.253,17.745 V 25.972 H 30.795 Z M -86.109,-3.069 c 0,3.49 3.854,5.157 8.25,5.157 0.957,0 1.754,0 2.446,-0.138 l 3.277,10.875 c -3.035,0.721 -5.666,0.87 -8.008,0.87 -8.918,0 -19.776,-4.615 -19.776,-14.526 0,-2.93 0.796,-5.192 1.811,-7.402 h -4.742 l -3.092,-10.343 h 32.111 l 3.115,10.343 h -8.134 c -4.408,0 -7.258,1.944 -7.258,5.164 M 37.753,51.668 c -4.096,0 -7.477,-3.381 -7.477,-7.408 0,-4.2 3.381,-7.546 7.477,-7.546 4.085,0 7.454,3.346 7.454,7.546 0,4.027 -3.369,7.408 -7.454,7.408 M 230.728,-0.415 c 0,-5.031 -2.192,-7.685 -6.9,-7.685 -2.526,0 -9.461,7.985 -9.461,14.659 0,5.146 2.365,9.502 9.23,9.502 2.297,0 4.754,-0.283 7.131,-0.566 z m 14.031,26.537 c -5.516,1.396 -15.208,2.902 -23.527,2.902 -14.446,0 -20.988,-7.667 -20.988,-21.074 0,-5.296 2.896,-11.296 6.588,-16.05 -9.98,0 -24.241,-0.133 -24.241,-0.133 -5.192,0 -9.057,2.787 -9.057,7.818 V 16.061 L 159.561,11.578 V -2.25 c 0,-9.473 7.604,-16.326 16.673,-16.326 h 47.675 c 11.861,0.149 20.85,4.88 20.85,17.745 z M 67.279,-28.597 c 0,1.107 1.154,1.667 2.481,1.667 l 0.75,-0.15 0.98,3.208 c -0.923,0.288 -1.684,0.288 -2.434,0.288 -2.689,0 -5.908,-1.258 -5.908,-4.344 0,-0.819 0.208,-1.541 0.531,-2.221 h -1.442 l -0.9,-3.064 h 9.657 l 0.889,3.064 h -2.424 c -1.315,0 -2.18,0.68 -2.18,1.552 m 18.772,28.182 c 0,-6.139 -2.676,-7.818 -6.103,-7.818 H 72.091 V 51.668 H 61.649 V -8.233 h -5.435 l -3.058,-10.343 h 31.557 c 10.535,0 15.323,5.186 15.323,17.745 V 51.668 H 86.051 Z m 27.738,-18.15 h 13.961 v 70.233 h -13.961 z m 109.808,55.279 c 4.155,0 7.478,3.346 7.478,7.546 0,4.027 -3.323,7.408 -7.478,7.408 -4.153,0 -7.441,-3.381 -7.441,-7.408 0,-4.2 3.288,-7.546 7.441,-7.546 M 413.746,0 c 0,-6.162 -1.431,-8.792 -5.123,-8.792 -3.38,0 -7.107,3.202 -10.465,8.088 -0.6,0.86 -0.946,1.552 -0.946,1.552 v 0.963 c 0.035,8.931 1.027,14.25 9.404,14.25 2.25,0 4.741,-0.283 7.13,-0.566 z M 306.303,-8.233 V 3.911 c 15.726,4.177 25.246,5.574 32.226,5.574 8.388,0 14.677,-5.147 15.68,-17.718 z m 97.936,37.257 c -14.319,0 -20.873,-7.517 -20.977,-20.636 v -8.803 c 0,-6.139 -2.653,-7.818 -6.138,-7.818 h -8.746 c -1.846,18.825 -9.231,30.709 -27.553,30.709 -8.734,0 -21.403,-2.492 -34.522,-6.415 v 6.415 l -14.008,-4.309 v -26.4 H 275.461 V 25.972 H 261.524 V -9.912 c 0,-13.257 -10.327,-17.728 -16.961,-17.728 l 2.999,-10.609 c 11.054,0 23.088,5.585 26.78,19.673 h 107.582 c 6.808,0 10.857,2.105 13.246,6.726 l 1.292,-1.269 c 3.715,-3.767 8.457,-6.138 13.292,-6.138 11.042,0 17.999,7.257 17.999,20.105 v 25.124 c -5.515,1.546 -15.184,3.052 -23.514,3.052" style="fill:#ffffff;fill-opacity:1;fill-rule:nonzero;stroke:none" id="path66"/>
        </g>
      </g>
    </g>
  </g>
</svg>